<svg id="헬로콕_타입로고" data-name="헬로콕 타입로고" xmlns="http://www.w3.org/2000/svg" xmlns:xlink="http://www.w3.org/1999/xlink" width="110.423" height="17.543" viewBox="0 0 110.423 17.543">
  <defs>
    <clipPath id="clip-path">
      <rect id="사각형_6" data-name="사각형 6" width="110.423" height="17.543" fill="none"/>
    </clipPath>
  </defs>
  <g id="그룹_6" data-name="그룹 6" clip-path="url(#clip-path)">
    <path id="패스_4" data-name="패스 4" d="M9.938,6.731a5.162,5.162,0,0,1,1.332,3.842v6.834H9.12V10.82a3.643,3.643,0,0,0-.83-2.6,3.118,3.118,0,0,0-2.375-.874A3.7,3.7,0,0,0,3.16,8.366a3.986,3.986,0,0,0-1.009,2.925v6.116H0V0H2.151V7.213A4.435,4.435,0,0,1,3.91,5.891a6.036,6.036,0,0,1,2.43-.471,4.907,4.907,0,0,1,3.6,1.311" transform="translate(0 0)" fill="#00c8ff"/>
    <path id="패스_5" data-name="패스 5" d="M35.869,15.853H26.234a3.717,3.717,0,0,0,1.378,2.52,4.49,4.49,0,0,0,2.923.953,4.406,4.406,0,0,0,3.429-1.434l1.187,1.389a5.188,5.188,0,0,1-2.006,1.434,7.549,7.549,0,0,1-6.015-.28,5.508,5.508,0,0,1-2.253-2.162,6.191,6.191,0,0,1-.795-3.137,6.3,6.3,0,0,1,.772-3.114,5.542,5.542,0,0,1,2.128-2.163,6.069,6.069,0,0,1,3.06-.773,5.944,5.944,0,0,1,3.036.773,5.432,5.432,0,0,1,2.083,2.163,6.588,6.588,0,0,1,.751,3.181,6.142,6.142,0,0,1-.044.65m-8.415-4.011a3.788,3.788,0,0,0-1.22,2.465h7.619a3.823,3.823,0,0,0-1.222-2.453,4.012,4.012,0,0,0-5.177-.012" transform="translate(-9.716 -3.666)" fill="#00c8ff"/>
    <rect id="사각형_4" data-name="사각형 4" width="2.15" height="17.408" transform="translate(29.292)" fill="#00c8ff"/>
    <rect id="사각형_5" data-name="사각형 5" width="2.151" height="17.408" transform="translate(34.925)" fill="#00c8ff"/>
    <path id="패스_6" data-name="패스 6" d="M70.343,20.425a5.692,5.692,0,0,1-2.208-2.163,6.141,6.141,0,0,1-.795-3.126,6.144,6.144,0,0,1,.795-3.126,5.61,5.61,0,0,1,2.208-2.151,6.508,6.508,0,0,1,3.183-.773,6.443,6.443,0,0,1,3.17.773,5.638,5.638,0,0,1,2.2,2.151,6.145,6.145,0,0,1,.8,3.126,6.142,6.142,0,0,1-.8,3.126,5.722,5.722,0,0,1-2.2,2.163,6.379,6.379,0,0,1-3.17.784,6.443,6.443,0,0,1-3.183-.784M75.576,18.8A3.726,3.726,0,0,0,77,17.321a4.524,4.524,0,0,0,.515-2.185A4.525,4.525,0,0,0,77,12.951a3.66,3.66,0,0,0-1.423-1.468,4.337,4.337,0,0,0-4.1,0,3.731,3.731,0,0,0-1.434,1.468,4.451,4.451,0,0,0-.527,2.185,4.45,4.45,0,0,0,.527,2.185A3.8,3.8,0,0,0,71.474,18.8a4.259,4.259,0,0,0,4.1,0" transform="translate(-27.169 -3.666)" fill="#00c8ff"/>
    <path id="패스_7" data-name="패스 7" d="M118.753,20.425a5.692,5.692,0,0,1-2.208-2.163,6.141,6.141,0,0,1-.795-3.126,6.144,6.144,0,0,1,.795-3.126,5.61,5.61,0,0,1,2.208-2.151,6.916,6.916,0,0,1,6.353,0,5.633,5.633,0,0,1,2.2,2.151,6.14,6.14,0,0,1,.8,3.126,6.136,6.136,0,0,1-.8,3.126,5.716,5.716,0,0,1-2.2,2.163,6.827,6.827,0,0,1-6.353,0m5.232-1.625a3.726,3.726,0,0,0,1.423-1.479,4.524,4.524,0,0,0,.515-2.185,4.524,4.524,0,0,0-.515-2.185,3.66,3.66,0,0,0-1.423-1.468,4.337,4.337,0,0,0-4.1,0,3.731,3.731,0,0,0-1.434,1.468,4.451,4.451,0,0,0-.527,2.185,4.45,4.45,0,0,0,.527,2.185,3.8,3.8,0,0,0,1.434,1.479,4.259,4.259,0,0,0,4.1,0" transform="translate(-46.7 -3.666)" fill="#00c8ff"/>
    <path id="패스_8" data-name="패스 8" d="M95.614,20.425a5.745,5.745,0,0,1-2.228-2.163,6.054,6.054,0,0,1-.807-3.125,6.058,6.058,0,0,1,.807-3.126,5.66,5.66,0,0,1,2.228-2.152,6.677,6.677,0,0,1,3.239-.773,6.229,6.229,0,0,1,2.88.65,4.64,4.64,0,0,1,1.96,1.882l-1.637,1.054a3.664,3.664,0,0,0-1.388-1.277,3.976,3.976,0,0,0-1.839-.427,4.255,4.255,0,0,0-2.1.516,3.677,3.677,0,0,0-1.456,1.468,4.449,4.449,0,0,0-.527,2.185,4.5,4.5,0,0,0,.527,2.207,3.677,3.677,0,0,0,1.456,1.467,4.242,4.242,0,0,0,2.1.515,3.968,3.968,0,0,0,1.839-.425,3.663,3.663,0,0,0,1.388-1.277l1.637,1.03a4.7,4.7,0,0,1-1.96,1.893,6.139,6.139,0,0,1-2.88.662,6.6,6.6,0,0,1-3.239-.784" transform="translate(-37.351 -3.666)" fill="#00c8ff"/>
    <path id="패스_9" data-name="패스 9" d="M144.024,20.425a5.742,5.742,0,0,1-2.228-2.163,6.048,6.048,0,0,1-.807-3.125,6.052,6.052,0,0,1,.807-3.126,5.656,5.656,0,0,1,2.228-2.152,6.677,6.677,0,0,1,3.239-.773,6.224,6.224,0,0,1,2.88.65,4.637,4.637,0,0,1,1.961,1.882l-1.637,1.054a3.662,3.662,0,0,0-1.388-1.277,3.972,3.972,0,0,0-1.838-.427,4.255,4.255,0,0,0-2.1.516,3.677,3.677,0,0,0-1.456,1.468,4.449,4.449,0,0,0-.527,2.185,4.5,4.5,0,0,0,.527,2.207,3.678,3.678,0,0,0,1.456,1.467,4.242,4.242,0,0,0,2.1.515,3.964,3.964,0,0,0,1.838-.425,3.66,3.66,0,0,0,1.388-1.277l1.637,1.03a4.7,4.7,0,0,1-1.961,1.893,6.134,6.134,0,0,1-2.88.662,6.6,6.6,0,0,1-3.239-.784" transform="translate(-56.882 -3.666)" fill="#00c8ff"/>
    <path id="패스_10" data-name="패스 10" d="M170.073,11.873l-2.464,2.285v3.249H165.46V0h2.149V11.447l6.477-5.915h2.6l-5,4.907,5.489,6.968h-2.643Z" transform="translate(-66.754 0)" fill="#00c8ff"/>
  </g>
</svg>
